<svg width="135" height="31" viewBox="0 0 135 31" fill="none" xmlns="http://www.w3.org/2000/svg">
<path d="M12.3864 29.8983V17.3837H4.86915V29.8983H0V0.512541H4.86915V12.8136H12.3864V0.512541H17.2556V29.8983H12.3864Z" fill="white"/>
<path d="M30.6024 30.24C27.7265 30.24 25.6763 29.8271 24.4519 29.0014C23.2275 28.1471 22.4587 26.7661 22.1454 24.8583C21.8322 22.922 21.6756 19.7044 21.6756 15.2054C21.6756 10.7064 21.8322 7.50305 22.1454 5.59525C22.4587 3.65898 23.2275 2.27797 24.4519 1.4522C25.6763 0.597965 27.7265 0.170846 30.6024 0.170846C33.4783 0.170846 35.5285 0.597965 36.7529 1.4522C37.9773 2.27797 38.7461 3.65898 39.0593 5.59525C39.401 7.53152 39.5719 10.7349 39.5719 15.2054C39.5719 19.6759 39.401 22.8793 39.0593 24.8156C38.7461 26.7519 37.9773 28.1471 36.7529 29.0014C35.5285 29.8271 33.4783 30.24 30.6024 30.24ZM30.6024 25.8407C31.9976 25.8407 32.9515 25.6698 33.4641 25.3281C33.9766 24.958 34.3041 24.1037 34.4465 22.7654C34.6173 21.3986 34.7027 18.8786 34.7027 15.2054C34.7027 11.5322 34.6173 9.02644 34.4465 7.68813C34.3041 6.32135 33.9766 5.46712 33.4641 5.12542C32.9515 4.75525 31.9976 4.57017 30.6024 4.57017C29.2071 4.57017 28.2532 4.75525 27.7407 5.12542C27.2566 5.46712 26.9292 6.30712 26.7583 7.64542C26.6159 8.98373 26.5448 11.5037 26.5448 15.2054C26.5448 18.9071 26.6159 21.4271 26.7583 22.7654C26.9292 24.1037 27.2566 24.958 27.7407 25.3281C28.2532 25.6698 29.2071 25.8407 30.6024 25.8407Z" fill="white"/>
<path d="M60.8761 0.512541V16.9566C60.8761 20.8007 60.7052 23.6054 60.3636 25.3708C60.0219 27.1078 59.2673 28.3607 58.0998 29.1295C56.9324 29.8698 55.0103 30.24 52.3337 30.24C49.6571 30.24 47.7351 29.8698 46.5676 29.1295C45.4002 28.3607 44.6456 27.1078 44.3039 25.3708C43.9907 23.6054 43.8341 20.8007 43.8341 16.9566V0.512541H48.7032V18.7932C48.7032 21.0712 48.7602 22.6658 48.8741 23.5769C49.0164 24.4597 49.3297 25.0576 49.8137 25.3708C50.2978 25.6841 51.1378 25.8407 52.3337 25.8407C53.5581 25.8407 54.4124 25.6841 54.8964 25.3708C55.3805 25.0576 55.6795 24.4597 55.7934 23.5769C55.9358 22.6658 56.0069 21.0712 56.0069 18.7932V0.512541H60.8761Z" fill="white"/>
<path d="M80.0563 0L72.5942 14.2458C76.7478 14.4382 80.0563 17.8666 80.0563 22.0678C80.0563 26.3925 76.5504 29.8983 72.2258 29.8983H64.3953L72.5942 14.2458C72.4721 14.2401 72.3493 14.2373 72.2258 14.2373H71.5139C67.5824 14.2373 64.3953 11.0502 64.3953 7.11864C64.3953 3.18713 67.5824 0 71.5139 0H80.0563Z" fill="white"/>
<path d="M82.5763 29.8983V0.512541H96.5858V4.91186H87.4454V12.8563H95.3471V17.2556H87.4454V25.499H96.5858V29.8983H82.5763Z" fill="white"/>
<path d="M104.737 25.499H115.373V29.8983H99.8682V26.1824C99.8682 23.5627 99.9252 21.6692 100.039 20.5017C100.181 19.3058 100.48 18.3376 100.936 17.5973C101.392 16.8569 102.175 16.1878 103.285 15.5898C104.424 14.9349 106.133 13.981 108.411 12.7281C109.293 12.2156 109.863 11.703 110.119 11.1905C110.375 10.6495 110.504 9.76678 110.504 8.54237C110.504 7.31796 110.375 6.43525 110.119 5.89424C109.863 5.32474 109.45 4.96881 108.88 4.82644C108.311 4.65559 107.414 4.57017 106.19 4.57017C104.766 4.57017 102.773 4.71254 100.21 4.99729V0.93966C101.178 0.711863 102.346 0.526778 103.712 0.384405C105.108 0.242032 106.389 0.170846 107.556 0.170846C109.265 0.170846 110.66 0.341694 111.742 0.683389C112.824 1.02508 113.693 1.77966 114.348 2.94712C115.031 4.11457 115.373 5.85152 115.373 8.15797C115.373 10.5498 115.102 12.3153 114.561 13.4542C114.049 14.5932 113.137 15.5044 111.828 16.1878L106.318 19.1349C105.976 19.3342 105.706 19.5193 105.506 19.6902C105.335 19.8325 105.193 20.0176 105.079 20.2454C104.908 20.5586 104.809 20.9858 104.78 21.5268C104.752 22.0393 104.737 22.9363 104.737 24.2176V25.499Z" fill="white"/>
<path d="M119.23 25.4563C121.537 25.7125 123.459 25.8407 124.996 25.8407C126.363 25.8407 127.374 25.7125 128.029 25.4563C128.712 25.1715 129.182 24.6875 129.438 24.0041C129.694 23.3207 129.823 22.2956 129.823 20.9288C129.823 19.5051 129.68 18.4658 129.395 17.8108C129.111 17.1275 128.627 16.6719 127.943 16.4441C127.26 16.2163 126.221 16.1024 124.825 16.1024C122.974 16.1024 121.166 16.2447 119.401 16.5295V0.512541H133.368V4.91186H123.971V12.002C124.37 11.9166 124.911 11.8454 125.594 11.7885C126.306 11.7315 126.975 11.703 127.602 11.703C129.481 11.703 130.933 12.0447 131.958 12.7281C133.012 13.4115 133.724 14.3797 134.094 15.6325C134.492 16.8854 134.692 18.48 134.692 20.4163C134.692 22.8081 134.45 24.7017 133.966 26.0969C133.51 27.4922 132.67 28.5315 131.446 29.2149C130.221 29.8983 128.47 30.24 126.192 30.24C125.195 30.24 124.042 30.1688 122.732 30.0264C121.423 29.8841 120.255 29.7132 119.23 29.5139V25.4563Z" fill="white"/>
</svg>
